<svg width="26" height="26" viewBox="0 0 26 26" fill="none" xmlns="http://www.w3.org/2000/svg">
<g opacity="0.7">
<path d="M19.6268 8.12272C19.7435 8.00978 19.8366 7.87466 19.9006 7.72524C19.9647 7.57583 19.9985 7.41511 19.9999 7.25247C20.0014 7.08983 19.9706 6.92851 19.9093 6.77795C19.848 6.62738 19.7574 6.49058 19.6428 6.37551C19.5282 6.26045 19.3919 6.16943 19.2418 6.10777C19.0918 6.04611 18.931 6.01504 18.7689 6.01637C18.6068 6.01771 18.4465 6.05142 18.2975 6.11555C18.1485 6.17967 18.0137 6.27293 17.901 6.38986L13.0069 11.2977L8.11444 6.38986C8.00265 6.26952 7.86784 6.17299 7.71806 6.10604C7.56827 6.03909 7.40658 6.00309 7.24262 6.00019C7.07867 5.99729 6.91581 6.02754 6.76376 6.08915C6.61172 6.15076 6.4736 6.24245 6.35765 6.35877C6.2417 6.47509 6.15029 6.61364 6.08887 6.76616C6.02746 6.91869 5.9973 7.08206 6.00019 7.24653C6.00308 7.411 6.03897 7.5732 6.10571 7.72345C6.17245 7.87371 6.26867 8.00894 6.38864 8.12108L11.2779 13.0306L6.38539 17.9384C6.1697 18.1706 6.05227 18.4777 6.05785 18.7951C6.06343 19.1124 6.19159 19.4152 6.41531 19.6396C6.63903 19.864 6.94086 19.9926 7.2572 19.9982C7.57355 20.0038 7.87971 19.886 8.11118 19.6696L13.0069 14.7618L17.8994 19.6712C18.1309 19.8876 18.437 20.0054 18.7534 19.9998C19.0697 19.9942 19.3715 19.8657 19.5953 19.6412C19.819 19.4168 19.9471 19.114 19.9527 18.7967C19.9583 18.4794 19.8409 18.1722 19.6252 17.94L14.736 13.0306L19.6268 8.12272Z" fill="#0E0E0F"/>
</g>
</svg>
