<svg width="14" height="14" viewBox="0 0 14 14" fill="none" xmlns="http://www.w3.org/2000/svg">
<g opacity="0.5">
<path d="M10.25 4.83341H9.70829V3.75007C9.70829 2.25507 8.49496 1.04174 6.99996 1.04174C5.50496 1.04174 4.29163 2.25507 4.29163 3.75007V4.83341H3.74996C3.15413 4.83341 2.66663 5.32091 2.66663 5.91674V11.3334C2.66663 11.9292 3.15413 12.4167 3.74996 12.4167H10.25C10.8458 12.4167 11.3333 11.9292 11.3333 11.3334V5.91674C11.3333 5.32091 10.8458 4.83341 10.25 4.83341ZM5.37496 4.83341V3.75007C5.37496 2.85091 6.10079 2.12507 6.99996 2.12507C7.89913 2.12507 8.62496 2.85091 8.62496 3.75007V4.83341H5.37496Z" fill="#0E0E0F"/>
</g>
</svg>
