<svg width="25" height="21" viewBox="0 0 25 21" fill="none" xmlns="http://www.w3.org/2000/svg">
<path d="M10.0355 0.31019L0 10.4483L10.0355 20.5863C10.1261 20.7059 10.2413 20.8046 10.3732 20.8756C10.505 20.9466 10.6505 20.9883 10.7998 20.9979C10.9491 21.0074 11.0987 20.9847 11.2385 20.9311C11.3783 20.8775 11.505 20.7944 11.61 20.6873C11.715 20.5802 11.7959 20.4517 11.8472 20.3105C11.8986 20.1693 11.9191 20.0186 11.9074 19.8687C11.8958 19.7188 11.8522 19.5732 11.7797 19.4417C11.7071 19.3102 11.6074 19.1959 11.4871 19.1066L3.9787 11.4978L23.9557 11.4978C24.2327 11.4978 24.4983 11.3872 24.6941 11.1904C24.89 10.9935 25 10.7266 25 10.4483C25 10.1699 24.89 9.90298 24.6941 9.70616C24.4983 9.50934 24.2327 9.39877 23.9557 9.39877L3.9787 9.39877L11.4871 1.78997C11.6823 1.59235 11.7915 1.32487 11.7905 1.04637C11.7895 0.767872 11.6785 0.501173 11.4818 0.304941C11.2852 0.108711 11.019 -0.00097847 10.7419 5.72205e-06C10.4648 0.000989914 10.1994 0.112568 10.0042 0.31019H10.0355Z" fill="white"/>
</svg>
