<svg width="24" height="24" viewBox="0 0 24 24" fill="none" xmlns="http://www.w3.org/2000/svg">
<path d="M7.28243 3.68725C7.19221 3.59178 7.12168 3.47947 7.07487 3.35674C7.02805 3.23401 7.00587 3.10327 7.00958 2.97196C7.0133 2.84066 7.04284 2.71138 7.09652 2.59149C7.15019 2.47161 7.22696 2.36347 7.32243 2.27325C7.4179 2.18303 7.53021 2.1125 7.65294 2.06569C7.77567 2.01887 7.90641 1.99669 8.03772 2.0004C8.16902 2.00411 8.2983 2.03365 8.41819 2.08733C8.53808 2.14101 8.64621 2.21778 8.73643 2.31325L17.2364 11.3132C17.412 11.4989 17.5098 11.7447 17.5098 12.0002C17.5098 12.2558 17.412 12.5016 17.2364 12.6872L8.73643 21.6882C8.64681 21.7858 8.53869 21.8646 8.41837 21.92C8.29804 21.9754 8.1679 22.0064 8.03551 22.0111C7.90311 22.0158 7.7711 21.9942 7.64715 21.9474C7.52319 21.9007 7.40976 21.8298 7.31344 21.7388C7.21711 21.6479 7.13983 21.5387 7.08606 21.4176C7.03229 21.2965 7.00312 21.166 7.00024 21.0335C6.99735 20.9011 7.02081 20.7694 7.06926 20.6461C7.1177 20.5228 7.19016 20.4103 7.28243 20.3153L15.1344 12.0002L7.28243 3.68725Z" fill="#0E0E0F"/>
</svg>
