<svg width="16" height="11" viewBox="0 0 16 11" fill="none" xmlns="http://www.w3.org/2000/svg">
<g clip-path="url(#clip0_2704_459)">
<path d="M11.0713 0.652831C10.9909 0.585123 10.8893 0.55127 10.7666 0.55127C10.6185 0.55127 10.4915 0.610514 10.3857 0.729004L4.19678 8.36523L1.79102 6.09277C1.7487 6.04622 1.69792 6.01025 1.63867 5.98486C1.57943 5.95947 1.51807 5.94678 1.45459 5.94678C1.32341 5.94678 1.20915 5.99544 1.11182 6.09277L0.800781 6.40381C0.707682 6.49268 0.661133 6.60482 0.661133 6.74023C0.661133 6.87565 0.707682 6.98991 0.800781 7.08301L3.79688 10.0791C3.94499 10.2145 4.11214 10.2822 4.29834 10.2822C4.40414 10.2822 4.5057 10.259 4.60303 10.2124C4.70036 10.1659 4.78076 10.1003 4.84424 10.0156L11.4902 1.59863C11.5622 1.5013 11.5981 1.40186 11.5981 1.30029C11.5981 1.14372 11.5347 1.01888 11.4077 0.925781L11.0713 0.652831ZM8.6211 8.32715C8.43067 8.20866 8.2487 8.09017 8.0752 7.97168C7.99479 7.89128 7.889 7.85107 7.75781 7.85107C7.6097 7.85107 7.4891 7.90397 7.396 8.00977L7.10401 8.33984C7.01937 8.43717 6.97705 8.54508 6.97705 8.66357C6.97705 8.79476 7.0236 8.90902 7.1167 9.00635L8.1958 10.0791C8.33122 10.2145 8.49626 10.2822 8.69092 10.2822C8.79671 10.2822 8.89828 10.259 8.99561 10.2124C9.09294 10.1659 9.17546 10.1003 9.24317 10.0156L15.8638 1.62402C15.9357 1.53939 15.9717 1.43994 15.9717 1.32568C15.9717 1.1818 15.9124 1.05697 15.7939 0.951172L15.4385 0.678223C15.3581 0.610514 15.2586 0.57666 15.1401 0.57666C14.9963 0.57666 14.8714 0.635905 14.7656 0.754395L8.6211 8.32715Z" fill="#53BDEB"/>
</g>
<defs>
<clipPath id="clip0_2704_459">
<rect width="16" height="11" fill="white"/>
</clipPath>
</defs>
</svg>
