<svg width="126" height="125" viewBox="0 0 126 125" fill="none" xmlns="http://www.w3.org/2000/svg">
<g opacity="0.2">
<path d="M99.7188 25.5729C94.9438 20.7496 89.2562 16.9253 82.9877 14.3232C76.7193 11.721 69.9954 10.393 63.2084 10.4167C34.7709 10.4167 11.5938 33.5937 11.5938 62.0312C11.5938 71.1458 13.9896 80 18.4688 87.8125L11.1771 114.583L38.5209 107.396C46.073 111.51 54.5625 113.698 63.2084 113.698C91.6459 113.698 114.823 90.5208 114.823 62.0833C114.823 48.2812 109.458 35.3125 99.7188 25.5729ZM63.2084 104.948C55.5 104.948 47.948 102.865 41.3334 98.9583L39.7709 98.0208L23.5209 102.292L27.8438 86.4583L26.8021 84.8438C22.5196 78.0051 20.2456 70.1002 20.2396 62.0312C20.2396 38.3854 39.5105 19.1146 63.1563 19.1146C74.6146 19.1146 85.3959 23.5937 93.4688 31.7187C97.4661 35.6977 100.634 40.4305 102.789 45.6428C104.943 50.8551 106.042 56.4433 106.021 62.0833C106.125 85.7292 86.8542 104.948 63.2084 104.948ZM86.75 72.8646C85.448 72.2396 79.0938 69.1146 77.948 68.6458C76.75 68.2292 75.9167 68.0208 75.0313 69.2708C74.1459 70.5729 71.698 73.4896 70.9688 74.3229C70.2396 75.2083 69.4584 75.3125 68.1563 74.6354C66.8542 74.0104 62.6875 72.6042 57.7917 68.2292C53.9375 64.7917 51.3855 60.5729 50.6042 59.2708C49.875 57.9688 50.5 57.2917 51.1771 56.6146C51.75 56.0417 52.4792 55.1042 53.1042 54.375C53.7292 53.6458 53.9896 53.0729 54.4063 52.2396C54.823 51.3542 54.6146 50.625 54.3021 50C53.9896 49.375 51.3855 43.0208 50.3438 40.4167C49.3021 37.9167 48.2084 38.2292 47.4271 38.1771H44.9271C44.0417 38.1771 42.6875 38.4896 41.4896 39.7917C40.3438 41.0937 37.0105 44.2188 37.0105 50.5729C37.0105 56.9271 41.6459 63.0729 42.2709 63.9062C42.8959 64.7917 51.3855 77.8125 64.3021 83.3854C67.375 84.7396 69.7709 85.5208 71.6459 86.0938C74.7188 87.0833 77.5313 86.9271 79.7709 86.6146C82.2709 86.25 87.4271 83.4896 88.4688 80.4688C89.5625 77.4479 89.5625 74.8958 89.198 74.3229C88.8334 73.75 88.0521 73.4896 86.75 72.8646Z" fill="#0E0E0F"/>
</g>
</svg>
