<svg width="18" height="18" viewBox="0 0 18 18" fill="none" xmlns="http://www.w3.org/2000/svg">
<path d="M9.0001 16L7.1001 16.9L5.8001 15.2L3.7001 15.1L3.4001 13L1.5001 12L2.2001 9.90001L1.1001 8.20001L2.6001 6.70001L2.4001 4.60001L4.5001 4.00001L5.3001 2.00001L7.4001 2.40001L9.0001 1.10001L10.7001 2.40001L12.7001 2.00001L13.6001 4.00001L15.6001 4.60001L15.5001 6.70001L17.0001 8.20001L15.9001 9.90001L16.5001 12L14.7001 13L14.3001 15.1L12.2001 15.2L10.9001 16.9L9.0001 16Z" fill="#00DA60"/>
<path d="M13.1 7.3L12.2 6.5L8.1 10.6L5.9 8.5L5 9.4L8 12.4L13.1 7.3Z" fill="white"/>
</svg>
