<svg width="53" height="53" viewBox="0 0 53 53" fill="none" xmlns="http://www.w3.org/2000/svg">
<circle cx="26.5" cy="26.5" r="26.5" fill="#4BA586"/>
<g clip-path="url(#clip0_301_461)">
<path d="M31.9 33.3333V36H13V33.3333C13 33.3333 13 28 22.45 28C31.9 28 31.9 33.3333 31.9 33.3333ZM27.175 20.6667C27.175 19.7437 26.8979 18.8415 26.3787 18.0741C25.8595 17.3066 25.1216 16.7085 24.2582 16.3553C23.3948 16.0021 22.4448 15.9097 21.5282 16.0897C20.6116 16.2698 19.7697 16.7143 19.1089 17.3669C18.4481 18.0195 17.9981 18.8511 17.8158 19.7563C17.6335 20.6615 17.727 21.5999 18.0847 22.4526C18.4423 23.3053 19.0479 24.0341 19.8249 24.5469C20.602 25.0597 21.5155 25.3334 22.45 25.3334C23.7031 25.3334 24.905 24.8417 25.7911 23.9665C26.6772 23.0914 27.175 21.9044 27.175 20.6667ZM31.819 28C32.6489 28.6344 33.328 29.4406 33.8085 30.362C34.2889 31.2835 34.5591 32.2977 34.6 33.3333V36H40V33.3333C40 33.3333 40 28.4934 31.819 28ZM30.55 16.0001C29.6208 15.995 28.712 16.2693 27.9445 16.7867C28.7645 17.9184 29.2055 19.2751 29.2055 20.6667C29.2055 22.0583 28.7645 23.4151 27.9445 24.5467C28.712 25.0641 29.6208 25.3385 30.55 25.3334C31.8031 25.3334 33.005 24.8417 33.8911 23.9665C34.7772 23.0914 35.275 21.9044 35.275 20.6667C35.275 19.429 34.7772 18.2421 33.8911 17.3669C33.005 16.4917 31.8031 16.0001 30.55 16.0001Z" fill="white"/>
</g>
<defs>
<clipPath id="clip0_301_461">
<rect width="27" height="20" fill="white" transform="translate(13 16)"/>
</clipPath>
</defs>
</svg>
