<svg width="56" height="56" viewBox="0 0 56 56" fill="none" xmlns="http://www.w3.org/2000/svg">
<circle cx="28" cy="28" r="24" fill="#CFD5D7" stroke="white" stroke-width="2"/>
<circle cx="28" cy="28" r="27" stroke="white" stroke-width="2"/>
<g clip-path="url(#clip0_302_8)">
<path d="M32 32.0001V34.0001H18V32.0001C18 32.0001 18 28.0001 25 28.0001C32 28.0001 32 32.0001 32 32.0001ZM28.5 22.5001C28.5 21.8078 28.2947 21.1311 27.9101 20.5556C27.5256 19.98 26.9789 19.5314 26.3394 19.2665C25.6999 19.0016 24.9961 18.9323 24.3172 19.0673C23.6382 19.2024 23.0146 19.5357 22.5251 20.0252C22.0356 20.5147 21.7023 21.1383 21.5673 21.8172C21.4322 22.4962 21.5015 23.1999 21.7664 23.8394C22.0313 24.479 22.4799 25.0256 23.0555 25.4102C23.6311 25.7948 24.3078 26.0001 25 26.0001C25.9283 26.0001 26.8185 25.6313 27.4749 24.9749C28.1313 24.3185 28.5 23.4283 28.5 22.5001ZM31.94 28.0001C32.5547 28.4758 33.0578 29.0805 33.4137 29.7716C33.7696 30.4626 33.9697 31.2233 34 32.0001V34.0001H38V32.0001C38 32.0001 38 28.3701 31.94 28.0001ZM31 19.0001C30.3117 18.9962 29.6385 19.202 29.07 19.5901C29.6774 20.4388 30.0041 21.4563 30.0041 22.5001C30.0041 23.5438 29.6774 24.5613 29.07 25.4101C29.6385 25.7981 30.3117 26.0039 31 26.0001C31.9283 26.0001 32.8185 25.6313 33.4749 24.9749C34.1313 24.3185 34.5 23.4283 34.5 22.5001C34.5 21.5718 34.1313 20.6816 33.4749 20.0252C32.8185 19.3688 31.9283 19.0001 31 19.0001Z" fill="white"/>
</g>
<defs>
<clipPath id="clip0_302_8">
<rect width="20" height="15.0001" fill="white" transform="translate(18 19)"/>
</clipPath>
</defs>
</svg>
