<svg width="31" height="30" viewBox="0 0 31 30" fill="none" xmlns="http://www.w3.org/2000/svg">
<g clip-path="url(#clip0_10_303)">
<path d="M13.8872 6.94995L5.87891 15L13.8872 23.05C13.9596 23.1449 14.0515 23.2233 14.1567 23.2796C14.2619 23.336 14.378 23.3691 14.4972 23.3767C14.6163 23.3843 14.7357 23.3662 14.8472 23.3237C14.9588 23.2811 15.0599 23.2151 15.1437 23.1301C15.2275 23.0451 15.2921 22.9431 15.333 22.8309C15.374 22.7188 15.3903 22.5992 15.381 22.4801C15.3717 22.3611 15.337 22.2455 15.2791 22.1411C15.2212 22.0367 15.1416 21.9459 15.0456 21.875L9.05391 15.8333L24.9956 15.8333C25.2166 15.8333 25.4285 15.7455 25.5848 15.5892C25.7411 15.4329 25.8289 15.221 25.8289 15C25.8289 14.7789 25.7411 14.567 25.5848 14.4107C25.4285 14.2544 25.2166 14.1666 24.9956 14.1666L9.05391 14.1666L15.0456 8.12495C15.2014 7.96803 15.2885 7.75564 15.2877 7.5345C15.2869 7.31337 15.1983 7.1016 15.0414 6.94578C14.8845 6.78997 14.6721 6.70287 14.451 6.70365C14.2298 6.70444 14.0181 6.79303 13.8622 6.94995H13.8872Z" fill="#4BA586"/>
</g>
<defs>
<clipPath id="clip0_10_303">
<rect width="30" height="30" fill="white" transform="matrix(0 -1 1 0 0.878906 30)"/>
</clipPath>
</defs>
</svg>
