<svg width="69" height="70" viewBox="0 0 69 70" fill="none" xmlns="http://www.w3.org/2000/svg">
<g clip-path="url(#clip0_1_9)">
<path d="M1.47246 34.5811C1.47084 40.4624 2.99746 46.2051 5.90032 51.2668L1.19484 68.5612L18.7769 63.9206C23.6399 66.5855 29.0885 67.9818 34.6253 67.9822H34.6399C52.9182 67.9822 67.7971 53.0101 67.8049 34.6074C67.8084 25.69 64.3617 17.3046 58.0994 10.9959C51.8382 4.68781 43.511 1.21196 34.6386 1.20789C16.3581 1.20789 1.48027 16.1792 1.47273 34.5811" fill="url(#paint0_linear_1_9)"/>
<path d="M0.288398 34.5702C0.286512 40.6632 1.86785 46.6113 4.8742 51.8543L0 69.7686L18.2125 64.9616C23.2306 67.7158 28.8805 69.1679 34.6296 69.17H34.6445C53.5785 69.17 68.9919 53.6593 69 34.5979C69.0032 25.3601 65.4325 16.6733 58.9465 10.1386C52.4597 3.60473 43.8347 0.00379845 34.6445 0C15.7072 0 0.295945 15.5085 0.288398 34.5702ZM11.1343 50.9513L10.4543 49.8647C7.59566 45.2892 6.08682 40.0017 6.08898 34.5724C6.09518 18.7288 18.9044 5.83876 34.6553 5.83876C42.283 5.84202 49.4514 8.83519 54.8431 14.2659C60.2346 19.6971 63.2013 26.9169 63.1994 34.5957C63.1924 50.4393 50.3829 63.331 34.6445 63.331H34.6331C29.5086 63.3283 24.4826 61.9429 20.0995 59.325L19.0564 58.7023L8.24873 61.5547L11.1343 50.951V50.9513Z" fill="url(#paint1_linear_1_9)"/>
<path d="M26.0577 20.1177C25.4146 18.6789 24.7378 18.6498 24.1263 18.6246C23.6255 18.6029 23.053 18.6045 22.4811 18.6045C21.9086 18.6045 20.9784 18.8213 20.1922 19.6855C19.4052 20.5504 17.1875 22.6406 17.1875 26.8919C17.1875 31.1435 20.2636 35.252 20.6925 35.8291C21.1218 36.4051 26.631 45.4086 35.3563 48.8722C42.6078 51.7506 44.0835 51.1781 45.6572 51.0338C47.2313 50.89 50.7363 48.9441 51.4514 46.9263C52.167 44.9088 52.167 43.1794 51.9524 42.818C51.7379 42.458 51.1654 42.2417 50.3069 41.8098C49.4482 41.3776 45.2279 39.2871 44.4411 38.9987C43.6541 38.7105 43.0819 38.5667 42.5094 39.432C41.9369 40.2958 40.293 42.2417 39.792 42.818C39.2915 43.3956 38.7904 43.4675 37.9322 43.0353C37.0732 42.6018 34.3086 41.6904 31.0287 38.7469C28.4768 36.4564 26.7539 33.6279 26.2532 32.7627C25.7524 31.8988 26.1995 31.4305 26.63 30.9999C27.0157 30.6128 27.4887 29.9909 27.9183 29.4865C28.3463 28.9819 28.4892 28.6218 28.7754 28.0456C29.0619 27.4687 28.9185 26.9641 28.7043 26.5319C28.4892 26.0997 26.8211 21.8261 26.0577 20.1177Z" fill="white"/>
</g>
<defs>
<linearGradient id="paint0_linear_1_9" x1="3331.7" y1="6736.54" x2="3331.7" y2="1.20789" gradientUnits="userSpaceOnUse">
<stop stop-color="#1FAF38"/>
<stop offset="1" stop-color="#60D669"/>
</linearGradient>
<linearGradient id="paint1_linear_1_9" x1="3450" y1="6976.86" x2="3450" y2="0" gradientUnits="userSpaceOnUse">
<stop stop-color="#F9F9F9"/>
<stop offset="1" stop-color="white"/>
</linearGradient>
<clipPath id="clip0_1_9">
<rect width="69" height="70" fill="white"/>
</clipPath>
</defs>
</svg>
