<svg width="24" height="24" viewBox="0 0 24 24" fill="none" xmlns="http://www.w3.org/2000/svg">
<g clip-path="url(#clip0_409_490)">
<mask id="mask0_409_490" style="mask-type:luminance" maskUnits="userSpaceOnUse" x="0" y="0" width="24" height="24">
<path d="M24 0H0V24H24V0Z" fill="white"/>
</mask>
<g mask="url(#mask0_409_490)">
<path d="M4.7595 14.0357C4.65644 14.0313 4.55139 14.029 4.44446 14.029C3.65152 14.029 2.96238 14.1558 2.41872 14.3088C1.95159 14.4403 1.42115 14.656 0.975466 14.9996C0.521192 15.3498 0.107939 15.8739 0.0263682 16.5959C-0.0117388 16.9332 2.95304e-05 17.6554 0.00922728 18.0644C0.0256195 18.7935 0.623061 19.3623 1.33916 19.3623H4.31303C4.13562 18.9875 4.03074 18.5698 4.01771 18.1256C4.00494 17.6905 3.97075 16.5163 4.05525 15.893C4.09928 15.5682 4.17628 15.2639 4.27738 14.982C4.40496 14.6263 4.57082 14.3123 4.7595 14.0357Z" fill="black" fill-opacity="0.6"/>
<path d="M19.6869 19.3623H22.6608C23.3769 19.3623 23.9744 18.7935 23.9908 18.0644C24 17.6554 24.0117 16.9332 23.9736 16.5959C23.8921 15.8739 23.4788 15.3498 23.0245 14.9996C22.5788 14.656 22.0484 14.4403 21.5813 14.3088C21.0376 14.1558 20.3485 14.029 19.5555 14.029C19.4486 14.029 19.3435 14.0313 19.2405 14.0357C19.4291 14.3123 19.595 14.6263 19.7226 14.982C19.8237 15.2639 19.9007 15.5682 19.9447 15.893C20.0292 16.5163 19.995 17.6905 19.9822 18.1256C19.9692 18.5698 19.8643 18.9875 19.6869 19.3623Z" fill="black" fill-opacity="0.6"/>
<path fill-rule="evenodd" clip-rule="evenodd" d="M8.52837 13.6265C9.36693 13.3837 10.565 13.1401 12.0001 13.1401C13.4352 13.1401 14.6332 13.3837 15.4717 13.6265C15.904 13.7517 16.4207 13.9288 16.8827 14.2131C17.3521 14.5019 17.8168 14.934 18.0493 15.5821C18.1098 15.751 18.1564 15.9344 18.1831 16.1318C18.2431 16.5742 18.2201 17.5691 18.2053 18.0735C18.1841 18.7987 17.5885 19.3623 16.8757 19.3623H7.1244C6.41161 19.3623 5.81605 18.7987 5.79478 18.0735C5.77998 17.5691 5.757 16.5742 5.81697 16.1318C5.84373 15.9344 5.89027 15.751 5.95085 15.5821C6.1833 14.934 6.64799 14.5019 7.11742 14.2131C7.57939 13.9288 8.09608 13.7517 8.52837 13.6265Z" fill="black" fill-opacity="0.6"/>
<path fill-rule="evenodd" clip-rule="evenodd" d="M16.8889 9.97003C16.8889 8.49728 18.0828 7.31003 19.5555 7.31003C21.0283 7.31003 22.2222 8.49728 22.2222 9.97003C22.2222 11.4428 21.0283 12.64 19.5555 12.64C18.0828 12.64 16.8889 11.4428 16.8889 9.97003Z" fill="black" fill-opacity="0.6"/>
<path fill-rule="evenodd" clip-rule="evenodd" d="M8.44434 8.20002C8.44434 6.23635 10.0362 4.64001 11.9999 4.64001C13.9635 4.64001 15.5554 6.23635 15.5554 8.20002C15.5554 10.1637 13.9635 11.75 11.9999 11.75C10.0362 11.75 8.44434 10.1637 8.44434 8.20002Z" fill="black" fill-opacity="0.6"/>
<path fill-rule="evenodd" clip-rule="evenodd" d="M1.77783 9.97003C1.77783 8.49728 2.97174 7.31003 4.4445 7.31003C5.91725 7.31003 7.11116 8.49728 7.11116 9.97003C7.11116 11.4428 5.91725 12.64 4.4445 12.64C2.97174 12.64 1.77783 11.4428 1.77783 9.97003Z" fill="black" fill-opacity="0.6"/>
</g>
</g>
<defs>
<clipPath id="clip0_409_490">
<rect width="24" height="24" fill="white"/>
</clipPath>
</defs>
</svg>
