<svg width="24" height="24" viewBox="0 0 24 24" fill="none" xmlns="http://www.w3.org/2000/svg">
<path d="M15.15 6.44995L12 9.59995L7.85001 5.44995L6.45001 6.84995L12 12.4L16.55 7.84995L15.15 6.44995Z" fill="#EA0038"/>
<path d="M18 9.5L13.5 5H18V9.5Z" fill="#EA0038"/>
<path d="M22.25 15.4L21.05 14.2C16.8 10.05 6.59999 10.65 2.94999 14.2L1.74999 15.4C1.39999 15.75 1.39999 16.25 1.74999 16.6L4.14999 18.95C4.49999 19.3 4.99999 19.3 5.34999 18.95L7.99999 16.4L7.79999 13.6C8.64999 12.75 15.35 12.75 16.2 13.6L16.05 16.5L18.6 18.95C18.95 19.3 19.45 19.3 19.8 18.95L22.2 16.6C22.6 16.25 22.6 15.7 22.25 15.4Z" fill="#EA0038"/>
</svg>
