<svg width="53" height="53" viewBox="0 0 53 53" fill="none" xmlns="http://www.w3.org/2000/svg">
<circle cx="26.5" cy="26.5" r="26.5" fill="#4BA586"/>
<path d="M34.6688 36.13L34.6689 36.1291C34.798 34.9799 34.683 33.8164 34.3312 32.7147C33.9795 31.613 33.3991 30.5981 32.628 29.7363C31.8569 28.8744 30.9124 28.1852 29.8565 27.7137C28.8005 27.2421 27.6569 26.9989 26.5005 27L26.4997 27C25.119 26.9992 23.7605 27.3465 22.5496 28.0099C21.3662 28.6582 20.3611 29.5878 19.6229 30.7161L19.5724 30.7957C18.5644 32.3812 18.1267 34.2628 18.3312 36.1305L17.8342 36.1849L18.3312 36.13C18.3393 36.2033 18.3646 36.2736 18.405 36.3353C18.4453 36.397 18.4997 36.4482 18.5636 36.4849L34.6688 36.13ZM34.6688 36.13C34.6607 36.2033 34.6354 36.2736 34.595 36.3353C34.5546 36.397 34.5003 36.4483 34.4363 36.485C32.0214 37.8706 29.2849 38.5978 26.5007 38.5937L26.4992 38.5938M34.6688 36.13L26.4992 38.5938M26.4992 38.5938C23.715 38.5981 20.9784 37.8709 18.5637 36.485L26.4992 38.5938ZM22.1562 19.7188C22.1562 18.5667 22.6139 17.4619 23.4285 16.6473C24.2431 15.8326 25.348 15.375 26.5 15.375C27.652 15.375 28.7569 15.8326 29.5715 16.6473C30.3861 17.4619 30.8438 18.5667 30.8438 19.7188C30.8438 20.8708 30.3861 21.9756 29.5715 22.7902C28.7569 23.6049 27.652 24.0625 26.5 24.0625C25.348 24.0625 24.2431 23.6049 23.4285 22.7902C22.6139 21.9756 22.1562 20.8708 22.1562 19.7188ZM31.8438 23.5938C31.8438 22.6986 32.1993 21.8402 32.8323 21.2073C33.4652 20.5743 34.3236 20.2188 35.2188 20.2188C36.1139 20.2188 36.9723 20.5743 37.6052 21.2073C38.2382 21.8402 38.5938 22.6986 38.5938 23.5938C38.5938 24.4889 38.2382 25.3473 37.6052 25.9802C36.9723 26.6132 36.1139 26.9688 35.2188 26.9688C34.3236 26.9688 33.4652 26.6132 32.8323 25.9802C32.1993 25.3473 31.8438 24.4889 31.8438 23.5938ZM14.4062 23.5938C14.4062 22.6986 14.7618 21.8402 15.3948 21.2073C16.0277 20.5743 16.8861 20.2188 17.7812 20.2188C18.6764 20.2188 19.5348 20.5743 20.1677 21.2073C20.8007 21.8402 21.1562 22.6986 21.1562 23.5938C21.1562 24.4889 20.8007 25.3473 20.1677 25.9802C19.5348 26.6132 18.6764 26.9688 17.7812 26.9688C16.8861 26.9688 16.0277 26.6132 15.3948 25.9802C14.7618 25.3473 14.4062 24.4889 14.4062 23.5938Z" fill="white" stroke="white"/>
<path d="M18.5682 29.5214C17.9636 30.3233 17.4493 31.2968 17.1021 32.289C16.6805 33.4934 16.4734 34.8193 16.7235 35.9528C16.4116 35.8649 16.0549 35.7572 15.6885 35.6421C14.9058 35.3963 14.1272 35.1326 13.7624 35.0042L13.7606 35.0036L13.614 34.9526C13.573 34.9378 13.5372 34.9116 13.5107 34.877C13.484 34.8421 13.4679 34.8002 13.4645 34.7564L13.4643 34.7539L13.4515 34.5987C13.4515 34.5985 13.4515 34.5983 13.4515 34.5982C13.4047 34.0168 13.4756 33.432 13.6598 32.8786C13.844 32.3251 14.1379 31.8143 14.5238 31.3768C14.9097 30.9393 15.3798 30.584 15.9061 30.3322C16.016 30.2795 16.2863 30.1826 16.6743 30.06C17.0501 29.9413 17.5064 29.8078 17.9662 29.6817C18.1692 29.626 18.3721 29.5719 18.5682 29.5214ZM39.5359 34.7539L39.5358 34.7555C39.5323 34.7992 39.5162 34.841 39.4895 34.8758C39.463 34.9103 39.4272 34.9365 39.3863 34.9512C39.3859 34.9514 39.3856 34.9515 39.3852 34.9516L39.2396 35.0023L39.2375 35.003C39.0935 35.0538 38.8936 35.1222 38.6564 35.2033C38.5967 35.2237 38.5346 35.2449 38.4705 35.2669C38.1534 35.3755 37.7895 35.5007 37.423 35.6304C37.1002 35.7448 36.7685 35.865 36.462 35.9823C36.6305 34.8373 36.4556 33.5306 36.0368 32.3004C35.6898 31.281 35.1635 30.2783 34.4848 29.4251C34.6326 29.4706 34.7831 29.5179 34.9337 29.566C35.9104 29.8781 36.8374 30.2093 37.0941 30.3322C37.6204 30.584 38.0905 30.9393 38.4764 31.3768C38.8624 31.8143 39.1562 32.3251 39.3404 32.8786C39.5246 33.4319 39.5954 34.0166 39.5488 34.5979C39.5488 34.5982 39.5487 34.5984 39.5487 34.5987L39.5359 34.7539Z" fill="white" stroke="white"/>
</svg>
