<svg width="24" height="24" viewBox="0 0 24 24" fill="none" xmlns="http://www.w3.org/2000/svg">
<path d="M3.59961 7.2001C3.59961 6.24532 3.97889 5.32964 4.65403 4.65451C5.32916 3.97938 6.24483 3.6001 7.19961 3.6001H16.7996C17.7544 3.6001 18.6701 3.97938 19.3452 4.65451C20.0203 5.32964 20.3996 6.24532 20.3996 7.2001V11.5201C19.5359 11.0796 18.5858 10.8348 17.6169 10.803C16.6479 10.7711 15.6838 10.9531 14.793 11.3359C13.9023 11.7187 13.1068 12.293 12.4631 13.018C11.8194 13.7429 11.3432 14.6007 11.0684 15.5305C10.5471 15.4534 10.0411 15.2955 9.56841 15.0625C9.36342 14.9617 9.16784 14.8429 8.98401 14.7073C8.92891 14.6657 8.87566 14.6216 8.82441 14.5753L8.82081 14.5729C8.70783 14.4607 8.55491 14.398 8.39569 14.3986C8.23647 14.3991 8.084 14.4629 7.97181 14.5759C7.85962 14.6889 7.79691 14.8418 7.79748 15.001C7.79804 15.1602 7.86183 15.3127 7.97481 15.4249L7.97721 15.4261L7.97961 15.4285L7.98561 15.4345L8.00361 15.4513C8.08728 15.5275 8.17458 15.5995 8.26521 15.6673C8.44041 15.7993 8.69601 15.9685 9.03201 16.1365C9.48801 16.3645 10.0892 16.5877 10.8356 16.7089C10.6999 17.9796 10.9376 19.2624 11.5196 20.4001H7.19961C6.24483 20.4001 5.32916 20.0208 4.65403 19.3457C3.97889 18.6706 3.59961 17.7549 3.59961 16.8001V7.2001ZM8.99961 10.8001C9.31787 10.8001 9.62309 10.6737 9.84814 10.4486C10.0732 10.2236 10.1996 9.91836 10.1996 9.6001C10.1996 9.28184 10.0732 8.97661 9.84814 8.75157C9.62309 8.52653 9.31787 8.4001 8.99961 8.4001C8.68135 8.4001 8.37613 8.52653 8.15108 8.75157C7.92604 8.97661 7.79961 9.28184 7.79961 9.6001C7.79961 9.91836 7.92604 10.2236 8.15108 10.4486C8.37613 10.6737 8.68135 10.8001 8.99961 10.8001ZM16.1996 9.6001C16.1996 9.28184 16.0732 8.97661 15.8481 8.75157C15.6231 8.52653 15.3179 8.4001 14.9996 8.4001C14.6813 8.4001 14.3761 8.52653 14.1511 8.75157C13.926 8.97661 13.7996 9.28184 13.7996 9.6001C13.7996 9.91836 13.926 10.2236 14.1511 10.4486C14.3761 10.6737 14.6813 10.8001 14.9996 10.8001C15.3179 10.8001 15.6231 10.6737 15.8481 10.4486C16.0732 10.2236 16.1996 9.91836 16.1996 9.6001ZM22.7996 17.4001C22.7996 18.8323 22.2307 20.2058 21.218 21.2185C20.2053 22.2312 18.8318 22.8001 17.3996 22.8001C15.9674 22.8001 14.5939 22.2312 13.5812 21.2185C12.5685 20.2058 11.9996 18.8323 11.9996 17.4001C11.9996 15.9679 12.5685 14.5944 13.5812 13.5817C14.5939 12.569 15.9674 12.0001 17.3996 12.0001C18.8318 12.0001 20.2053 12.569 21.218 13.5817C22.2307 14.5944 22.7996 15.9679 22.7996 17.4001ZM17.9996 15.0001C17.9996 14.841 17.9364 14.6884 17.8239 14.5758C17.7114 14.4633 17.5587 14.4001 17.3996 14.4001C17.2405 14.4001 17.0879 14.4633 16.9753 14.5758C16.8628 14.6884 16.7996 14.841 16.7996 15.0001V16.8001H14.9996C14.8405 16.8001 14.6879 16.8633 14.5753 16.9758C14.4628 17.0884 14.3996 17.241 14.3996 17.4001C14.3996 17.5592 14.4628 17.7118 14.5753 17.8244C14.6879 17.9369 14.8405 18.0001 14.9996 18.0001H16.7996V19.8001C16.7996 19.9592 16.8628 20.1118 16.9753 20.2244C17.0879 20.3369 17.2405 20.4001 17.3996 20.4001C17.5587 20.4001 17.7114 20.3369 17.8239 20.2244C17.9364 20.1118 17.9996 19.9592 17.9996 19.8001V18.0001H19.7996C19.9587 18.0001 20.1114 17.9369 20.2239 17.8244C20.3364 17.7118 20.3996 17.5592 20.3996 17.4001C20.3996 17.241 20.3364 17.0884 20.2239 16.9758C20.1114 16.8633 19.9587 16.8001 19.7996 16.8001H17.9996V15.0001Z" fill="#02A698"/>
</svg>
