<svg width="24" height="24" viewBox="0 0 24 24" fill="none" xmlns="http://www.w3.org/2000/svg">
<g clip-path="url(#clip0_140_449)">
<path d="M20.0938 1.99992C20.0938 1.82311 20.0235 1.65354 19.8985 1.52851C19.7735 1.40349 19.6039 1.33325 19.4271 1.33325H4.76042C4.58361 1.33325 4.41404 1.40349 4.28901 1.52851C4.16399 1.65354 4.09375 1.82311 4.09375 1.99992V2.66659H20.0938V1.99992Z" fill="#007BFC"/>
<path d="M21.4137 4.66667C21.4137 4.48986 21.3435 4.32029 21.2185 4.19526C21.0935 4.07024 20.9239 4 20.7471 4H3.41374C3.23693 4 3.06736 4.07024 2.94233 4.19526C2.81731 4.32029 2.74707 4.48986 2.74707 4.66667V5.33333H21.4137V4.66667Z" fill="#007BFC"/>
<path d="M21.413 6.66675H2.58634C2.25394 6.66675 1.93515 6.7988 1.7001 7.03384C1.46505 7.26889 1.33301 7.58768 1.33301 7.92008V20.0801C1.33301 20.4125 1.46505 20.7313 1.7001 20.9663C1.93515 21.2014 2.25394 21.3334 2.58634 21.3334H21.413C21.7454 21.3334 22.0642 21.2014 22.2992 20.9663C22.5343 20.7313 22.6663 20.4125 22.6663 20.0801V7.92008C22.6663 7.58768 22.5343 7.26889 22.2992 7.03384C22.0642 6.7988 21.7454 6.66675 21.413 6.66675ZM5.70634 8.96675C6.1019 8.96675 6.48858 9.08405 6.81748 9.30381C7.14638 9.52357 7.40272 9.83593 7.5541 10.2014C7.70548 10.5668 7.74508 10.969 7.66791 11.3569C7.59074 11.7449 7.40026 12.1013 7.12055 12.381C6.84085 12.6607 6.48448 12.8511 6.09652 12.9283C5.70856 13.0055 5.30643 12.9659 4.94097 12.8145C4.57552 12.6631 4.26316 12.4068 4.0434 12.0779C3.82364 11.749 3.70634 11.3623 3.70634 10.9667C3.70634 10.4363 3.91705 9.92761 4.29213 9.55253C4.6672 9.17746 5.17591 8.96675 5.70634 8.96675ZM19.9997 18.6667H3.99967L8.97301 13.6867C9.06166 13.5988 9.18147 13.5495 9.30634 13.5495C9.43121 13.5495 9.55102 13.5988 9.63968 13.6867L12.093 16.1401L15.473 12.6667C15.5617 12.5788 15.6815 12.5295 15.8063 12.5295C15.9312 12.5295 16.051 12.5788 16.1397 12.6667L19.9997 16.5267V18.6667Z" fill="#007BFC"/>
</g>
<defs>
<clipPath id="clip0_140_449">
<rect width="24" height="24" fill="white"/>
</clipPath>
</defs>
</svg>
