<svg width="24" height="24" viewBox="0 0 24 24" fill="none" xmlns="http://www.w3.org/2000/svg">
<path d="M21.6004 11.9999C21.6004 11.3634 21.3475 10.7529 20.8974 10.3028C20.4474 9.85276 19.8369 9.5999 19.2004 9.5999H4.80039C4.16387 9.5999 3.55342 9.85276 3.10333 10.3028C2.65325 10.7529 2.40039 11.3634 2.40039 11.9999C2.40039 12.6364 2.65325 13.2469 3.10333 13.697C3.55342 14.147 4.16387 14.3999 4.80039 14.3999H19.2004C19.8369 14.3999 20.4474 14.147 20.8974 13.697C21.3475 13.2469 21.6004 12.6364 21.6004 11.9999ZM12.0004 4.7999C12.0004 4.16338 11.7475 3.55293 11.2974 3.10285C10.8474 2.65276 10.2369 2.3999 9.60039 2.3999H4.80039C4.16387 2.3999 3.55342 2.65276 3.10333 3.10285C2.65325 3.55293 2.40039 4.16338 2.40039 4.7999C2.40039 5.43642 2.65325 6.04687 3.10333 6.49696C3.55342 6.94705 4.16387 7.1999 4.80039 7.1999H9.60039C10.2369 7.1999 10.8474 6.94705 11.2974 6.49696C11.7475 6.04687 12.0004 5.43642 12.0004 4.7999ZM16.8004 19.1999C16.8004 18.5634 16.5475 17.9529 16.0974 17.5028C15.6474 17.0528 15.0369 16.7999 14.4004 16.7999H4.80039C4.16387 16.7999 3.55342 17.0528 3.10333 17.5028C2.65325 17.9529 2.40039 18.5634 2.40039 19.1999C2.40039 19.8364 2.65325 20.4469 3.10333 20.897C3.55342 21.347 4.16387 21.5999 4.80039 21.5999H14.4004C15.0369 21.5999 15.6474 21.347 16.0974 20.897C16.5475 20.4469 16.8004 19.8364 16.8004 19.1999Z" fill="#FFBC38"/>
</svg>
