<svg width="377" height="379" viewBox="0 0 377 379" fill="none" xmlns="http://www.w3.org/2000/svg">
<g clip-path="url(#clip0_1_20)">
<path d="M115.368 0H104.809V10.5495H115.368V0Z" fill="#0E0E0F"/>
<path d="M167.773 0H157.214V10.5495H167.773V0Z" fill="#0E0E0F"/>
<path d="M240.905 0H230.345V10.5495H240.905V0Z" fill="#0E0E0F"/>
<path d="M146.655 21.099V10.5495H136.095V0H125.536V10.5495V21.099V31.2577H136.095V21.099H146.655Z" fill="#0E0E0F"/>
<path d="M251.464 10.5495H240.905V21.099H251.464V10.5495Z" fill="#0E0E0F"/>
<path d="M272.191 31.2577V41.8072H282.75V31.2577V21.099V10.5495H272.191V21.099V31.2577Z" fill="#0E0E0F"/>
<path d="M104.809 31.2577V21.099H94.25V31.2577V41.8072H104.809V31.2577Z" fill="#0E0E0F"/>
<path d="M272.191 0H261.632V10.5495H272.191V0Z" fill="#0E0E0F"/>
<path d="M251.464 41.8072H261.632V31.2577V21.099H251.464V31.2577V41.8072Z" fill="#0E0E0F"/>
<path d="M125.927 41.8072H115.368V52.3567H125.927V41.8072Z" fill="#0E0E0F"/>
<path d="M167.773 41.8072H157.214V52.3567H167.773V41.8072Z" fill="#0E0E0F"/>
<path d="M115.368 52.3567H104.809V62.9062H115.368V52.3567Z" fill="#0E0E0F"/>
<path d="M209.618 52.3567H199.059V62.9062H209.618V52.3567Z" fill="#0E0E0F"/>
<path d="M104.809 62.9062H94.25V73.4557H104.809V62.9062Z" fill="#0E0E0F"/>
<path d="M220.177 62.9062H209.618V73.4557H220.177V62.9062Z" fill="#0E0E0F"/>
<path d="M136.095 73.0649V62.9062V52.3567H125.536V62.9062V73.0649V83.6144H136.095V73.0649Z" fill="#0E0E0F"/>
<path d="M157.214 73.0649V62.9062V52.3567H146.655V62.9062V73.0649V83.6144H157.214V73.0649Z" fill="#0E0E0F"/>
<path d="M209.618 73.0649H199.059V83.6144V94.1639H209.618V83.6144V73.0649Z" fill="#0E0E0F"/>
<path d="M83.6908 94.1639H73.1317V104.713H83.6908V94.1639Z" fill="#0E0E0F"/>
<path d="M209.618 104.713V115.263H219.786V104.713V94.1639H209.618V104.713Z" fill="#0E0E0F"/>
<path d="M293.309 94.1639H282.75V83.6144H272.191V94.1639H261.632V104.713H272.191V115.263H282.75H293.309V104.713V94.1639Z" fill="#0E0E0F"/>
<path d="M10.5591 104.713H0V115.263H10.5591V104.713Z" fill="#0E0E0F"/>
<path d="M52.4046 104.713V94.1639H41.8455V104.713V115.263H52.4046V104.713Z" fill="#0E0E0F"/>
<path d="M262.023 104.713H251.464V115.263H262.023V104.713Z" fill="#0E0E0F"/>
<path d="M314.427 104.713H303.868V115.263H314.427V104.713Z" fill="#0E0E0F"/>
<path d="M41.8454 125.422V115.263H31.2863V104.713V94.1639H21.1182H10.5591V104.713H21.1182V115.263V125.422H31.2863H41.8454Z" fill="#0E0E0F"/>
<path d="M240.905 115.263H230.345V125.812H240.905V115.263Z" fill="#0E0E0F"/>
<path d="M345.714 125.422V115.263V104.713V94.1639H335.155V104.713H324.595V115.263V125.422V135.971H335.155V125.422H345.714Z" fill="#0E0E0F"/>
<path d="M21.1182 125.422H10.5591V135.971H21.1182V125.422Z" fill="#0E0E0F"/>
<path d="M282.75 52.3567H272.191V62.9062H282.75V52.3567Z" fill="#0E0E0F"/>
<path d="M272.191 62.9062H261.632V73.4557H272.191V62.9062Z" fill="#0E0E0F"/>
<path d="M52.4046 125.422H41.8455V135.971H52.4046V125.422Z" fill="#0E0E0F"/>
<path d="M125.536 125.422V115.263H115.368V125.422V135.971V146.521H125.536V135.971H136.095V125.422H125.536Z" fill="#0E0E0F"/>
<path d="M303.868 135.971V125.422V115.263H293.309V125.422H282.75V135.971H293.309H303.868Z" fill="#0E0E0F"/>
<path d="M31.6774 135.971H21.1183V146.521H31.6774V135.971Z" fill="#0E0E0F"/>
<path d="M62.9637 146.521V157.07H73.1317H83.6908H94.25H104.809V146.521V135.971H94.25V146.521H83.6908H73.1317V135.971H83.6908V125.422V115.263H73.1317H62.9637V125.422V135.971H52.4045V146.521H62.9637Z" fill="#0E0E0F"/>
<path d="M272.191 146.521H282.75V135.971H272.191H261.632V146.521V157.07H251.464V167.229V177.778H261.632V167.229H272.191V157.07V146.521Z" fill="#0E0E0F"/>
<path d="M314.036 146.521H303.868H293.309V157.07H303.868H314.036V167.229H324.595H335.155V157.07V146.521H324.595H314.036Z" fill="#0E0E0F"/>
<path d="M10.5591 157.07V146.521H0V157.07V167.229H10.5591V157.07Z" fill="#0E0E0F"/>
<path d="M125.927 157.07H115.368V167.62H125.927V157.07Z" fill="#0E0E0F"/>
<path d="M188.5 157.07V167.229H199.059H209.618H219.786V157.07V146.521H230.345H240.905H251.464V135.971V125.422H240.905V135.971H230.345H219.786V125.422H209.618V135.971V146.521H199.059V157.07H188.5Z" fill="#0E0E0F"/>
<path d="M282.75 167.229H272.191V177.778V188.328H282.75V177.778H293.309V167.229V157.07H282.75V167.229Z" fill="#0E0E0F"/>
<path d="M115.368 177.778V167.229H104.809H94.25V177.778H104.809H115.368Z" fill="#0E0E0F"/>
<path d="M136.354 170.171V180.246H146.88H157.406H167.931H178.154H188.983V170.171H178.457H167.931V160.096V150.021V139.946H178.457V150.021H188.983V139.946H199.509V129.87V119.795H188.983V129.87H178.457V119.795H188.983V109.72H199.509V99.6448H188.983V89.5696H178.457V99.6448H167.931V89.5696H178.457V79.4944H188.983V69.4192V59.344V49.2688V39.1936H199.509H210.035H220.561V49.2688H231.087V59.344H241.613V69.4192H231.087V79.4944H220.561V89.5696H231.087V99.6448H241.613V89.5696H252.139V79.4944V69.4192V59.344V49.2688H241.613V39.1936V30.2379V20.5359H231.087V10.4607H220.561H210.035H199.509V20.5359H210.035V30.2379H199.509H188.983H178.457V20.5359V10.4607H167.931V20.5359H157.406H146.88V30.2379H136.354V40.3131H146.88H157.406V30.2379H167.931V40.3131H178.457V50.3883V60.4635H167.931V70.5387V80.6138H157.406V90.689H146.88V80.6138H136.354V90.689H125.828V80.6138H115.302V90.689H104.776H94.25V100.764H104.776H115.302H125.828H136.354H146.88V110.839V120.915V130.99H136.354V141.065V151.14V161.215H125.828V171.291H136.354V170.171ZM157.406 120.168V110.093H167.931V120.168V130.243H157.406V120.168ZM146.88 140.319H157.406V150.394H146.88V140.319ZM157.406 160.096V170.171H146.88V160.096H157.406Z" fill="#0E0E0F"/>
<path d="M230.345 177.778H240.905V167.229H230.345H219.786V177.778H230.345Z" fill="#0E0E0F"/>
<path d="M10.5591 177.778H0V188.328H10.5591V177.778Z" fill="#0E0E0F"/>
<path d="M124.73 188.293H113.583V199.558H124.73V210.824H135.464H146.611V199.558H135.464V188.293V177.028H124.73V188.293Z" fill="#0E0E0F"/>
<path d="M73.1317 198.877H83.6908H94.25V188.328V177.778H83.6908V167.229H73.1317H62.9637H52.4045V177.778H62.9637V188.328H73.1317V198.877Z" fill="#0E0E0F"/>
<path d="M282.75 188.328V198.877H272.191V209.427H282.75H293.309V219.976H303.868V230.526V241.075V251.625V262.174H293.309V272.724H282.75V262.174H293.309V251.625H282.75H272.191H261.632V262.174H272.191V272.724H261.632V283.273H251.073V293.041V303.591H261.632V293.041H272.191V303.591H261.632V314.14H272.191V324.299H261.632V334.848H272.191V345.398H282.75V334.848H293.309V324.299H303.868V334.848H293.309V345.398H303.868V355.557H314.427V366.106H303.868V355.557H293.309V366.106H282.75V376.656H293.309H303.868H314.427H324.595H335.155H345.714V366.106H355.882V355.557H345.323H334.763V366.106H324.595V355.557H335.155V345.007H324.595H314.036V334.458V324.299H324.595V303.2H335.155H345.714V293.041H355.882V282.492H345.323H334.763V293.041H324.595V282.492H335.155V271.942H324.595H314.036V261.393V250.843V240.294V229.744H324.595V240.294V250.843H335.155V240.294V229.744H345.714V219.195H335.155H324.595H314.036V208.645H303.477V198.096H314.036V208.645H324.595V198.096H335.155V187.546H324.595V176.997H314.036H303.477H293.309V187.546H282.75V188.328ZM314.036 313.749H282.75V282.492H314.036V313.749Z" fill="#0E0E0F"/>
<path d="M250.71 195.937H262.611V184.27H250.71H239.25V195.937V207.605H250.71V195.937Z" fill="#0E0E0F"/>
<path d="M345.714 198.877H335.155V209.427H345.714V198.877Z" fill="#0E0E0F"/>
<path d="M73.5229 209.427H62.9637V219.976H73.5229V209.427Z" fill="#0E0E0F"/>
<path d="M235.222 214.847H223.944V226.917H235.222V214.847Z" fill="#0E0E0F"/>
<path d="M261.988 222.089H273.889V210.019H261.988H250.528V222.089V234.159H261.988V222.089Z" fill="#0E0E0F"/>
<path d="M282.75 230.135H272.191V240.685H282.75V230.135Z" fill="#0E0E0F"/>
<path d="M157.214 240.685H146.655V251.234H157.214V240.685Z" fill="#0E0E0F"/>
<path d="M177.941 240.685H167.382V251.234H177.941V240.685Z" fill="#0E0E0F"/>
<path d="M199.059 240.685H188.5V251.234H199.059V240.685Z" fill="#0E0E0F"/>
<path d="M167.773 251.234H157.214V261.784H167.773V251.234Z" fill="#0E0E0F"/>
<path d="M188.5 251.234H177.941V261.784H188.5V251.234Z" fill="#0E0E0F"/>
<path d="M52.4046 261.393V251.234V240.685V230.135V219.586H41.8454H31.2863V209.427V198.877H41.8454V209.427H52.4046H62.9637V198.877V188.328H52.4046H41.8454V177.778V167.229V157.07V146.521H31.2863V157.07V167.229V177.778V188.328H21.1183H10.5591V198.877H21.1183V209.427H10.5591V198.877H0V209.427V219.586H10.5591V230.135H0V240.685V251.234V261.393V271.942V282.492H10.5591H21.1183H31.2863V271.942H21.1183V261.393H10.5591V251.234V240.685H21.1183H31.2863V230.135H41.8454V240.685V251.234V261.393H31.2863V271.942H41.8454H52.4046V282.492H62.9637V271.942H73.1318V261.393H62.9637H52.4046Z" fill="#0E0E0F"/>
<path d="M163.528 269.307V258.075H152.247V247.258H140.966V258.075H129.684V247.258H140.966V236.026V224.793V213.561H129.684H118.821V224.793H129.684V236.026H118.821H107.54H96.2589H84.9778V224.793H96.2589H107.54V213.561H118.821V202.744H107.54V191.512H96.2589V202.744V213.561H84.9778H73.6967V224.793V236.026H62.8334V247.258H73.6967V258.075H84.9778V247.258H96.2589V258.075H107.54V247.258H118.821V258.075V269.307H107.54H96.2589V258.075H84.9778V269.307V280.54H96.2589H107.54V291.773H96.2589V303.005H107.54V313.822H118.821V303.005V291.773V280.54H129.684V269.307H140.966V280.54H152.247V269.307H163.528Z" fill="#0E0E0F"/>
<path d="M219.786 271.942H230.345V261.393H240.905H251.464V251.234V240.685H240.905V251.234H230.345H219.786V240.685H209.618V251.234V261.393H219.786V271.942Z" fill="#0E0E0F"/>
<path d="M262.023 261.393H251.464V271.942H262.023V261.393Z" fill="#0E0E0F"/>
<path d="M209.618 271.942V261.393H199.059V271.942V282.492H209.618V271.942Z" fill="#0E0E0F"/>
<path d="M251.464 271.942H240.905V282.492H251.464V271.942Z" fill="#0E0E0F"/>
<path d="M230.345 293.041H240.905V282.492H230.345H219.786H209.618V293.041H219.786H230.345Z" fill="#0E0E0F"/>
<path d="M136.095 293.041H125.536V303.591H136.095H146.655V293.041H136.095Z" fill="#0E0E0F"/>
<path d="M303.868 293.041H293.309V303.591H303.868V293.041Z" fill="#0E0E0F"/>
<path d="M157.214 303.591H146.655V314.14H157.214V303.591Z" fill="#0E0E0F"/>
<path d="M345.714 313.749H335.155V324.299H345.714V313.749Z" fill="#0E0E0F"/>
<path d="M104.809 324.299H94.25V334.848H104.809V324.299Z" fill="#0E0E0F"/>
<path d="M146.655 324.299V313.749H136.095V324.299V334.848V345.398H146.655V334.848V324.299Z" fill="#0E0E0F"/>
<path d="M251.464 324.299H240.905V334.848H251.464V324.299Z" fill="#0E0E0F"/>
<path d="M125.927 334.848H115.368V345.398H125.927V334.848Z" fill="#0E0E0F"/>
<path d="M167.773 334.848H157.214V345.398H167.773V334.848Z" fill="#0E0E0F"/>
<path d="M115.368 345.398H104.809H94.25V355.557V366.106H104.809V355.557H115.368V345.398Z" fill="#0E0E0F"/>
<path d="M157.214 345.398H146.655V355.947H157.214V345.398Z" fill="#0E0E0F"/>
<path d="M219.786 345.398H230.345V334.848H219.786H209.227V345.398V355.557H198.668V345.007H188.109V334.458H198.668H209.227V324.299H219.786H230.345H240.905V313.749H230.345H219.786H209.227V303.2V293.041H198.668V282.492H188.109H177.55V271.942H166.991H156.432V282.492H145.872V293.041H156.432H166.991V303.591V314.14V324.299V334.848H177.55V345.398H166.991V355.557V366.106H177.55V355.557H188.109V366.106H198.668H209.227H219.786V355.557V345.398ZM177.941 313.749H188.5V303.2H177.941V293.041H188.5V303.591H199.059V314.14V324.299H188.5H177.941V313.749Z" fill="#0E0E0F"/>
<path d="M136.095 355.557H125.536V366.106H136.095V355.557Z" fill="#0E0E0F"/>
<path d="M125.927 366.106H115.368V376.656H125.927V366.106Z" fill="#0E0E0F"/>
<path d="M146.655 366.106H136.095V376.656H146.655H157.214H167.382V366.106H157.214H146.655Z" fill="#0E0E0F"/>
<path d="M188.5 366.106H177.941V376.656H188.5V366.106Z" fill="#0E0E0F"/>
<path d="M355.882 240.685H345.714V251.234V261.393H355.882V251.234V240.685Z" fill="#0E0E0F"/>
<path d="M355.882 209.427H345.714V219.586H355.882H366.441V230.135H377V219.586V209.427V198.877H366.441V209.427H355.882Z" fill="#0E0E0F"/>
<path d="M366.441 198.877V188.328H355.882V177.778H345.714V188.328V198.877H355.882H366.441Z" fill="#0E0E0F"/>
<path d="M355.882 135.971H345.714H335.155V146.521H345.714V157.07V167.229H355.882V157.07H366.441V146.521H377V135.971H366.441H355.882Z" fill="#0E0E0F"/>
<path d="M366.441 261.393H355.882V271.942H366.441V282.492V293.041H377V282.492V271.942V261.393V251.234H366.441V261.393Z" fill="#0E0E0F"/>
<path d="M262.023 334.848H251.464V345.398H262.023V334.848Z" fill="#0E0E0F"/>
<path d="M293.309 345.398H282.75V355.947H293.309V345.398Z" fill="#0E0E0F"/>
<path d="M272.191 355.557V345.398H261.632V355.557H251.464V345.398H240.905V355.557H230.345V366.106H219.786V376.656H230.345H240.905V366.106H251.464V376.656H261.632V366.106H272.191H282.75V355.557H272.191Z" fill="#0E0E0F"/>
<path d="M356.273 324.299H345.714V334.848H356.273V324.299Z" fill="#0E0E0F"/>
<path d="M366.441 334.848H355.882V345.398H366.441V355.557V366.106H377V355.557V345.398V334.848V324.299H366.441V334.848Z" fill="#0E0E0F"/>
<path d="M83.6909 0H0V83.6144H83.6909V0ZM73.1318 73.0649H10.5591V10.5495H73.5228V73.0649H73.1318Z" fill="#0E0E0F"/>
<path d="M62.9637 21.099H21.1183V62.9062H62.9637V21.099Z" fill="#0E0E0F"/>
<path d="M0 379H83.6909V294.995H0V379ZM10.5591 305.544H73.5228V368.451H10.5591V305.544Z" fill="#0E0E0F"/>
<path d="M62.9637 316.094H21.1183V357.901H62.9637V316.094Z" fill="#0E0E0F"/>
<path d="M293.309 0V83.6144H377V0H293.309ZM366.441 73.0649H303.868V10.5495H366.832V73.0649H366.441Z" fill="#0E0E0F"/>
<path d="M355.882 21.099H314.036V62.9062H355.882V21.099Z" fill="#0E0E0F"/>
<path d="M232 185.074H219.917V197.144H232V185.074Z" fill="#0E0E0F"/>
<path d="M206.65 192.593C204.342 190.264 201.593 188.418 198.564 187.162C195.534 185.905 192.284 185.264 189.004 185.276C175.259 185.276 164.056 196.465 164.056 210.195C164.056 214.596 165.214 218.871 167.379 222.642L163.855 235.567L177.071 232.097C180.721 234.084 184.825 235.14 189.004 235.14C202.748 235.14 213.951 223.95 213.951 210.22C213.951 203.557 211.358 197.295 206.65 192.593ZM189.004 230.915C185.278 230.915 181.628 229.91 178.431 228.024L177.675 227.571L169.821 229.633L171.911 221.989L171.407 221.209C169.337 217.907 168.238 214.091 168.235 210.195C168.235 198.779 177.55 189.475 188.978 189.475C194.517 189.475 199.728 191.637 203.629 195.56C205.561 197.481 207.093 199.766 208.134 202.283C209.175 204.799 209.706 207.497 209.696 210.22C209.747 221.637 200.432 230.915 189.004 230.915ZM200.382 215.426C199.753 215.124 196.681 213.615 196.128 213.389C195.549 213.188 195.146 213.087 194.718 213.69C194.29 214.319 193.107 215.727 192.754 216.13C192.402 216.557 192.024 216.607 191.395 216.281C190.766 215.979 188.752 215.3 186.385 213.188C184.523 211.528 183.289 209.491 182.912 208.862C182.559 208.234 182.861 207.907 183.188 207.58C183.465 207.303 183.818 206.851 184.12 206.499C184.422 206.147 184.548 205.87 184.749 205.468C184.951 205.04 184.85 204.688 184.699 204.386C184.548 204.085 183.289 201.017 182.786 199.76C182.282 198.553 181.754 198.703 181.376 198.678H180.168C179.74 198.678 179.085 198.829 178.506 199.458C177.952 200.087 176.341 201.595 176.341 204.663C176.341 207.731 178.582 210.698 178.884 211.1C179.186 211.528 183.289 217.814 189.532 220.505C191.017 221.159 192.175 221.536 193.082 221.813C194.567 222.29 195.926 222.215 197.009 222.064C198.217 221.888 200.709 220.555 201.213 219.097C201.741 217.638 201.741 216.406 201.565 216.13C201.389 215.853 201.011 215.727 200.382 215.426Z" fill="#0E0E0F"/>
</g>
<defs>
<clipPath id="clip0_1_20">
<rect width="377" height="379" fill="white"/>
</clipPath>
</defs>
</svg>
