<svg width="19" height="20" viewBox="0 0 19 20" fill="none" xmlns="http://www.w3.org/2000/svg">
<rect width="19" height="20" fill="#E5E5E5"/>
<g clip-path="url(#clip0_0_1)">
<rect width="1920" height="1080" transform="translate(-723 -1024)" fill="#EFEAE2"/>
<rect width="1289" height="94" transform="translate(-92 -38)" fill="#F0F2F5"/>
<g opacity="0.7" clip-path="url(#clip1_0_1)">
<path d="M10.6766 1.75014C10.6793 1.58778 10.6496 1.42641 10.5892 1.27546C10.5289 1.12451 10.4391 0.986992 10.3251 0.870936C10.2112 0.75488 10.0753 0.662609 9.92548 0.599507C9.77565 0.536405 9.61485 0.503733 9.45245 0.503402C9.29006 0.503071 9.12933 0.535086 8.97963 0.597577C8.82994 0.660069 8.69429 0.751786 8.58058 0.867377C8.46688 0.982968 8.37741 1.12012 8.31739 1.27083C8.25737 1.42153 8.228 1.58278 8.231 1.74515L8.24072 8.67617L1.31085 8.66531C1.1467 8.65925 0.983126 8.68632 0.829872 8.7449C0.676618 8.80347 0.536828 8.89235 0.418842 9.00623C0.300856 9.12011 0.207091 9.25667 0.143141 9.40774C0.0791909 9.55882 0.0463656 9.72132 0.0466231 9.88556C0.0468807 10.0498 0.0802152 10.2124 0.14464 10.3637C0.209064 10.515 0.303258 10.6518 0.421602 10.7661C0.539945 10.8803 0.680014 10.9696 0.833453 11.0287C0.986891 11.0877 1.15056 11.1153 1.31468 11.1098L8.2434 11.1241L8.25427 18.054C8.26594 18.3707 8.40008 18.6709 8.62842 18.8913C8.85676 19.1118 9.16147 19.2353 9.47836 19.2357C9.79525 19.2362 10.0996 19.1137 10.3272 18.894C10.5549 18.6743 10.6881 18.3745 10.6987 18.0578L10.6902 11.1256L17.6212 11.1377C17.9379 11.127 18.2377 10.9938 18.4574 10.7661C18.6771 10.5385 18.7996 10.2342 18.7991 9.91727C18.7986 9.60038 18.6752 9.29567 18.4547 9.06733C18.2343 8.83899 17.9341 8.70486 17.6174 8.69318L10.6887 8.67886L10.6766 1.75014Z" fill="#0E0E0F"/>
</g>
</g>
<defs>
<clipPath id="clip0_0_1">
<rect width="1920" height="1080" fill="white" transform="translate(-723 -1024)"/>
</clipPath>
<clipPath id="clip1_0_1">
<rect width="26" height="26" fill="white" transform="translate(-8.94531 9.88477) rotate(-45)"/>
</clipPath>
</defs>
</svg>


