<svg width="34" height="34" viewBox="0 0 34 34" fill="none" xmlns="http://www.w3.org/2000/svg">
<rect width="34" height="34" rx="4" fill="#F2F2F2"/>
<g clip-path="url(#clip0_1_130)">
<path d="M15.7046 6.81992L15.2282 9.83392C14.5124 10.004 13.8262 10.2804 13.1923 10.6538L10.7063 8.88199L8.9091 10.6801L10.6539 13.1669C10.272 13.7996 9.98679 14.4858 9.80772 15.2028L6.81995 15.7054V18.2438L9.80772 18.7727C9.98576 19.49 10.271 20.1763 10.6539 20.8085L8.88202 23.2945L10.6801 25.0926L13.1669 23.3461C13.8009 23.7195 14.4871 23.9958 15.2028 24.1661L15.7054 27.1801H18.2439L18.7989 24.1661C19.5074 23.9862 20.1848 23.701 20.8086 23.3199L23.3208 25.0909L25.1189 23.2928L23.3208 20.8077C23.6914 20.19 23.9893 19.5165 24.1669 18.7981L27.1809 18.243V15.7045L24.1669 15.2019C23.9857 14.4939 23.7005 13.8167 23.3208 13.1923L25.0918 10.6801L23.2937 8.88199L20.8077 10.6801C20.175 10.2982 19.4888 10.013 18.7719 9.83392L18.243 6.82076H15.7046V6.81992ZM17 11.4738C18.4654 11.4747 19.8705 12.0572 20.9067 13.0933C21.9428 14.1295 22.5254 15.5346 22.5263 17C22.5254 18.4654 21.9428 19.8705 20.9067 20.9066C19.8705 21.9428 18.4654 22.5253 17 22.5262C15.5347 22.5251 14.1298 21.9425 13.0936 20.9064C12.0575 19.8703 11.4749 18.4653 11.4738 17C11.4749 15.5347 12.0575 14.1297 13.0936 13.0936C14.1298 12.0575 15.5347 11.4749 17 11.4738ZM17 12.8217C15.8926 12.8241 14.8313 13.2651 14.0482 14.0482C13.2652 14.8313 12.8242 15.8926 12.8217 17C12.8242 18.1074 13.2652 19.1687 14.0482 19.9518C14.8313 20.7348 15.8926 21.1758 17 21.1783C18.1074 21.1758 19.1688 20.7348 19.9518 19.9518C20.7349 19.1687 21.1759 18.1074 21.1783 17C21.1759 15.8926 20.7349 14.8313 19.9518 14.0482C19.1688 13.2651 18.1074 12.8241 17 12.8217ZM16.9738 15.2552C17.9435 15.2552 18.7456 16.0295 18.7456 17C18.7456 17.9697 17.9435 18.7456 16.9738 18.7456C16.7443 18.7466 16.5168 18.7022 16.3046 18.6148C16.0923 18.5274 15.8995 18.3989 15.7372 18.2366C15.5749 18.0743 15.4464 17.8814 15.359 17.6692C15.2716 17.457 15.2272 17.2295 15.2282 17C15.2282 16.0295 16.0041 15.2552 16.9738 15.2552Z" fill="#818B90"/>
</g>
<defs>
<clipPath id="clip0_1_130">
<rect width="22" height="22" fill="white" transform="translate(6 6)"/>
</clipPath>
</defs>
</svg>
