<svg width="24" height="24" viewBox="0 0 24 24" fill="none" xmlns="http://www.w3.org/2000/svg">
<path d="M9.15303 11.603C9.94803 11.603 10.592 10.724 10.592 9.641C10.592 8.558 9.94803 7.679 9.15303 7.679C8.35803 7.679 7.71403 8.558 7.71403 9.641C7.71403 10.724 8.35803 11.603 9.15303 11.603ZM5.94903 12.965C5.92303 12.658 5.81803 18.183 12.012 18.516C18.078 18.266 18.078 12.965 18.078 12.965C12 14.381 5.94903 12.965 5.94903 12.965ZM17.312 14.073C17.312 14.073 16.643 16.032 12.261 16.032C8.75603 16.032 6.87303 14.868 6.65403 14.073C6.65403 14.073 12.566 15.128 17.312 14.073ZM11.804 1.011C5.60903 1.011 0.978027 6.033 0.978027 12.228C0.978027 18.423 5.80403 22.989 11.999 22.989C18.194 22.989 23.02 18.423 23.02 12.228C23.021 6.033 17.999 1.011 11.804 1.011ZM12 21.354C6.72703 21.354 2.61903 17.468 2.61903 12.195C2.61903 6.922 6.56103 2.647 11.834 2.647C17.107 2.647 21.382 6.922 21.382 12.195C21.381 17.467 17.273 21.354 12 21.354ZM15.108 11.603C15.903 11.603 16.547 10.724 16.547 9.641C16.547 8.558 15.903 7.679 15.108 7.679C14.313 7.679 13.669 8.558 13.669 9.641C13.669 10.724 14.313 11.603 15.108 11.603Z" fill="#525254"/>
</svg>
