<svg width="34" height="34" viewBox="0 0 34 34" fill="none" xmlns="http://www.w3.org/2000/svg">
<rect width="34" height="34" rx="4" fill="#F2F2F2"/>
<path d="M17 10.4688C17.5695 10.4688 18.0312 10.007 18.0312 9.4375C18.0312 8.86796 17.5695 8.40625 17 8.40625C16.4305 8.40625 15.9688 8.86796 15.9688 9.4375C15.9688 10.007 16.4305 10.4688 17 10.4688Z" stroke="#818B90" stroke-width="1.5" stroke-linecap="round" stroke-linejoin="round"/>
<path d="M17 18.0312C17.5695 18.0312 18.0312 17.5695 18.0312 17C18.0312 16.4305 17.5695 15.9688 17 15.9688C16.4305 15.9688 15.9688 16.4305 15.9688 17C15.9688 17.5695 16.4305 18.0312 17 18.0312Z" stroke="#818B90" stroke-width="1.5" stroke-linecap="round" stroke-linejoin="round"/>
<path d="M17 25.5938C17.5695 25.5938 18.0312 25.132 18.0312 24.5625C18.0312 23.993 17.5695 23.5312 17 23.5312C16.4305 23.5312 15.9688 23.993 15.9688 24.5625C15.9688 25.132 16.4305 25.5938 17 25.5938Z" stroke="#818B90" stroke-width="1.5" stroke-linecap="round" stroke-linejoin="round"/>
</svg>
